<mxfile host="Electron" modified="2024-01-04T09:23:13.931Z" agent="Mozilla/5.0 (Windows NT 10.0; Win64; x64) AppleWebKit/537.36 (KHTML, like Gecko) draw.io/22.1.2 Chrome/114.0.5735.289 Electron/25.9.4 Safari/537.36" etag="VeqlusM9sN3M3Vq-rIFl" version="22.1.2" type="device">
  <diagram name="페이지-1" id="G2l-eyIvTwnHOa8w9Pkm">
    <mxGraphModel dx="1195" dy="697" grid="1" gridSize="10" guides="1" tooltips="1" connect="1" arrows="1" fold="1" page="1" pageScale="1" pageWidth="827" pageHeight="1169" math="0" shadow="0">
      <root>
        <mxCell id="0" />
        <mxCell id="1" parent="0" />
        <mxCell id="cia359NmAF2sVEVrCKqa-3" value="" style="edgeStyle=orthogonalEdgeStyle;rounded=0;orthogonalLoop=1;jettySize=auto;html=1;fontFamily=a고딕14;" edge="1" parent="1" target="cia359NmAF2sVEVrCKqa-2">
          <mxGeometry relative="1" as="geometry">
            <mxPoint x="480" y="230" as="sourcePoint" />
          </mxGeometry>
        </mxCell>
        <mxCell id="cia359NmAF2sVEVrCKqa-5" value="" style="edgeStyle=orthogonalEdgeStyle;rounded=0;orthogonalLoop=1;jettySize=auto;html=1;fontFamily=a고딕14;" edge="1" parent="1" source="cia359NmAF2sVEVrCKqa-1" target="cia359NmAF2sVEVrCKqa-4">
          <mxGeometry relative="1" as="geometry" />
        </mxCell>
        <mxCell id="cia359NmAF2sVEVrCKqa-1" value="USER" style="rounded=1;whiteSpace=wrap;html=1;fontFamily=a고딕14;" vertex="1" parent="1">
          <mxGeometry x="420" y="150" width="120" height="60" as="geometry" />
        </mxCell>
        <mxCell id="cia359NmAF2sVEVrCKqa-7" value="" style="edgeStyle=orthogonalEdgeStyle;rounded=0;orthogonalLoop=1;jettySize=auto;html=1;fontFamily=a고딕14;" edge="1" parent="1" target="cia359NmAF2sVEVrCKqa-6">
          <mxGeometry relative="1" as="geometry">
            <mxPoint x="390" y="330" as="sourcePoint" />
          </mxGeometry>
        </mxCell>
        <mxCell id="cia359NmAF2sVEVrCKqa-9" value="" style="edgeStyle=orthogonalEdgeStyle;rounded=0;orthogonalLoop=1;jettySize=auto;html=1;fontFamily=a고딕14;" edge="1" parent="1" source="cia359NmAF2sVEVrCKqa-2" target="cia359NmAF2sVEVrCKqa-8">
          <mxGeometry relative="1" as="geometry" />
        </mxCell>
        <mxCell id="cia359NmAF2sVEVrCKqa-2" value="DB" style="whiteSpace=wrap;html=1;rounded=1;fontFamily=a고딕14;" vertex="1" parent="1">
          <mxGeometry x="350" y="250" width="80" height="60" as="geometry" />
        </mxCell>
        <mxCell id="cia359NmAF2sVEVrCKqa-4" value="DB" style="whiteSpace=wrap;html=1;rounded=1;fontFamily=a고딕14;" vertex="1" parent="1">
          <mxGeometry x="530" y="250" width="80" height="60" as="geometry" />
        </mxCell>
        <mxCell id="cia359NmAF2sVEVrCKqa-6" value="TABLE" style="whiteSpace=wrap;html=1;rounded=1;fontFamily=a고딕14;" vertex="1" parent="1">
          <mxGeometry x="290" y="350" width="80" height="60" as="geometry" />
        </mxCell>
        <mxCell id="cia359NmAF2sVEVrCKqa-8" value="TABLE" style="whiteSpace=wrap;html=1;rounded=1;fontFamily=a고딕14;" vertex="1" parent="1">
          <mxGeometry x="410" y="350" width="80" height="60" as="geometry" />
        </mxCell>
        <mxCell id="cia359NmAF2sVEVrCKqa-11" value="" style="edgeStyle=orthogonalEdgeStyle;rounded=0;orthogonalLoop=1;jettySize=auto;html=1;exitX=0.5;exitY=1;exitDx=0;exitDy=0;fontFamily=a고딕14;" edge="1" target="cia359NmAF2sVEVrCKqa-13" parent="1" source="cia359NmAF2sVEVrCKqa-4">
          <mxGeometry relative="1" as="geometry">
            <mxPoint x="610" y="310" as="sourcePoint" />
          </mxGeometry>
        </mxCell>
        <mxCell id="cia359NmAF2sVEVrCKqa-13" value="TABLE" style="whiteSpace=wrap;html=1;rounded=1;fontFamily=a고딕14;" vertex="1" parent="1">
          <mxGeometry x="530" y="350" width="80" height="60" as="geometry" />
        </mxCell>
        <mxCell id="cia359NmAF2sVEVrCKqa-14" value="mySQL&lt;br&gt;&lt;br&gt;DB안에 TABLE이 저장된다.&lt;br&gt;(테이블 스키마, 등의 정보가 저장되어 있음)" style="rounded=0;whiteSpace=wrap;html=1;fontFamily=a고딕14;" vertex="1" parent="1">
          <mxGeometry x="360" y="40" width="240" height="90" as="geometry" />
        </mxCell>
        <mxCell id="cia359NmAF2sVEVrCKqa-15" value="" style="edgeStyle=orthogonalEdgeStyle;rounded=0;orthogonalLoop=1;jettySize=auto;html=1;exitX=0.5;exitY=1;exitDx=0;exitDy=0;entryX=0.5;entryY=0;entryDx=0;entryDy=0;fontFamily=a고딕14;" edge="1" parent="1" target="cia359NmAF2sVEVrCKqa-22" source="cia359NmAF2sVEVrCKqa-17">
          <mxGeometry relative="1" as="geometry">
            <mxPoint x="150" y="230" as="sourcePoint" />
            <mxPoint x="60" y="250" as="targetPoint" />
          </mxGeometry>
        </mxCell>
        <mxCell id="cia359NmAF2sVEVrCKqa-17" value="USER" style="rounded=1;whiteSpace=wrap;html=1;fontFamily=a고딕14;" vertex="1" parent="1">
          <mxGeometry x="100" y="150" width="120" height="60" as="geometry" />
        </mxCell>
        <mxCell id="cia359NmAF2sVEVrCKqa-22" value="TABLE" style="whiteSpace=wrap;html=1;rounded=1;fontFamily=a고딕14;" vertex="1" parent="1">
          <mxGeometry x="70" y="250" width="80" height="60" as="geometry" />
        </mxCell>
        <mxCell id="cia359NmAF2sVEVrCKqa-27" value="TABLE" style="whiteSpace=wrap;html=1;rounded=1;fontFamily=a고딕14;" vertex="1" parent="1">
          <mxGeometry x="170" y="250" width="80" height="60" as="geometry" />
        </mxCell>
        <mxCell id="cia359NmAF2sVEVrCKqa-28" value="" style="endArrow=classic;html=1;rounded=0;entryX=0.503;entryY=-0.029;entryDx=0;entryDy=0;entryPerimeter=0;fontFamily=a고딕14;" edge="1" parent="1" target="cia359NmAF2sVEVrCKqa-27">
          <mxGeometry width="50" height="50" relative="1" as="geometry">
            <mxPoint x="160" y="230" as="sourcePoint" />
            <mxPoint x="210" y="180" as="targetPoint" />
            <Array as="points">
              <mxPoint x="210" y="230" />
            </Array>
          </mxGeometry>
        </mxCell>
        <mxCell id="cia359NmAF2sVEVrCKqa-29" value="Oracle&lt;br&gt;&lt;br&gt;USER안에 TABLE이 저장된다." style="rounded=0;whiteSpace=wrap;html=1;fontFamily=a고딕14;" vertex="1" parent="1">
          <mxGeometry x="40" y="40" width="240" height="90" as="geometry" />
        </mxCell>
      </root>
    </mxGraphModel>
  </diagram>
</mxfile>
